<svg width="21" height="45" viewBox="0 0 21 45" fill="none" xmlns="http://www.w3.org/2000/svg">
<path d="M10.3626 0.675423L11.5338 2.87519C11.7972 3.28113 12.0824 3.64044 12.4184 3.97507C13.4035 4.94786 14.3217 5.98611 15.1668 7.08272C17.1512 9.68843 18.4897 12.5821 19.4456 15.7117C20.0189 17.6235 20.3302 19.5846 20.3535 21.5677C20.4495 27.4964 18.4171 32.5871 14.3192 36.818C13.6527 37.4889 12.9326 38.1044 12.1661 38.6584C11.7601 38.6584 11.5681 38.3471 11.4008 38.0605C11.0961 37.529 10.8933 36.9453 10.8029 36.3393C10.6589 35.6221 10.5642 34.9048 10.6109 34.1643V33.8296C10.578 33.7583 10.22 0.844108 10.3626 0.675423Z" fill="#599636"/>
<path d="M10.3627 0.602738C10.3147 0.506739 10.2667 0.579424 10.2187 0.626053C10.242 1.10605 10.0747 1.53394 9.81271 1.94262C9.52471 2.34856 9.14346 2.65988 8.76083 2.99451C6.63511 4.83496 4.96197 7.05804 3.62208 9.54444C1.83923 12.8907 0.920372 16.477 0.6598 20.2525C0.540486 21.6144 1.09043 26.4198 1.51969 27.8064C2.69089 31.4873 4.79466 34.5716 7.51968 37.2486C8.18894 37.8932 8.90483 38.4911 9.6454 39.0658C9.86071 39.0658 9.88403 38.8738 9.9334 38.7311C10.0278 38.4259 10.0998 38.1143 10.1487 37.7986L10.6287 34.2137L10.3627 0.602738Z" fill="#6CAC48"/>
<path d="M11.5338 40.1149C11.5818 39.5663 11.8452 39.111 12.1318 38.6571C11.8438 38.5377 11.6298 38.3005 11.4625 38.0358C11.3183 37.7852 11.1988 37.5211 11.106 37.2472C10.7713 36.2434 10.7 35.1901 10.604 34.1643V33.543C10.4847 33.639 10.46 34.4509 10.46 34.5716C10.3902 35.6558 10.2464 36.734 10.0294 37.7985C9.95808 38.2292 9.91008 38.6584 9.64539 39.0411C9.64539 39.0891 9.64539 39.1371 9.6687 39.2084C10.0993 40.4756 10.2173 41.7661 10.29 43.0813V43.5612C10.29 44.1345 10.2666 44.0138 10.7425 44.2058C10.9345 44.2771 11.1485 44.3018 11.3405 44.4444C11.4845 44.4444 11.5078 44.3251 11.5078 44.2291L11.4365 43.4406V41.2408C11.4132 40.8568 11.4845 40.4756 11.5325 40.1162L11.5338 40.1149Z" fill="#C2BFBF"/>
</svg>
