<svg width="45" height="45" viewBox="0 0 45 45" fill="none" xmlns="http://www.w3.org/2000/svg">
<path d="M42.611 0.555557H21.4764C21.4764 3.08586 22.4816 5.51252 24.2707 7.30171C26.0599 9.09091 28.4866 10.0961 31.0169 10.0961H34.9101V13.8551C34.9136 19.1193 39.1801 23.3861 44.4444 23.3895V2.38899C44.4444 1.3767 43.6238 0.555557 42.611 0.555557Z" fill="#2684FF"/>
<path d="M32.1537 11.0862H11.0192C11.0225 16.3504 15.2891 20.6172 20.5535 20.6206H24.4468V24.3917C24.4535 29.6559 28.723 33.9198 33.9873 33.9198V12.9199C33.9873 11.9073 33.1663 11.0863 32.1537 11.0863V11.0862Z" fill="url(#paint0_linear_1275_808)"/>
<path d="M21.6902 21.6108H0.55558C0.55558 26.8799 4.82716 31.1513 10.0961 31.1513H14.0015V34.9101C14.005 40.1696 18.2642 44.4345 23.5238 44.4444V23.4444C23.5238 22.4318 22.7028 21.6108 21.6902 21.6108Z" fill="url(#paint1_linear_1275_808)"/>
<defs>
<linearGradient id="paint0_linear_1275_808" x1="33.535" y1="11.1229" x2="24.5994" y2="20.447" gradientUnits="userSpaceOnUse">
<stop offset="0.18" stop-color="#0052CC"/>
<stop offset="1" stop-color="#2684FF"/>
</linearGradient>
<linearGradient id="paint1_linear_1275_808" x1="23.6765" y1="21.7147" x2="13.3402" y2="31.8843" gradientUnits="userSpaceOnUse">
<stop offset="0.18" stop-color="#0052CC"/>
<stop offset="1" stop-color="#2684FF"/>
</linearGradient>
</defs>
</svg>
