<svg width="45" height="45" viewBox="0 0 45 45" fill="none" xmlns="http://www.w3.org/2000/svg">
<path d="M22.3419 0.66967C11.2001 0.66967 11.8958 5.50139 11.8958 5.50139L11.9082 10.5072H22.5406V12.0101H7.68517C7.68517 12.0101 0.555557 11.2015 0.555557 22.4434C0.555557 33.6857 6.77845 33.287 6.77845 33.287H10.4923V28.0702C10.4923 28.0702 10.292 21.8473 16.6158 21.8473H27.1612C27.1612 21.8473 33.086 21.943 33.086 16.1212V6.49523C33.086 6.49523 33.9858 0.66967 22.3419 0.66967ZM16.4792 4.03598C16.7304 4.03575 16.9793 4.08507 17.2114 4.18112C17.4436 4.27716 17.6546 4.41805 17.8322 4.59571C18.0099 4.77337 18.1508 4.98432 18.2468 5.21648C18.3429 5.44865 18.3922 5.69748 18.392 5.94873C18.3922 6.19998 18.3429 6.44881 18.2468 6.68098C18.1508 6.91315 18.0099 7.1241 17.8322 7.30176C17.6546 7.47942 17.4436 7.6203 17.2114 7.71635C16.9793 7.81239 16.7304 7.86171 16.4792 7.86148C16.2279 7.86171 15.9791 7.81239 15.747 7.71635C15.5148 7.6203 15.3038 7.47942 15.1262 7.30176C14.9485 7.1241 14.8076 6.91315 14.7116 6.68098C14.6155 6.44881 14.5662 6.19998 14.5664 5.94873C14.5662 5.69748 14.6155 5.44865 14.7116 5.21648C14.8076 4.98432 14.9485 4.77337 15.1262 4.59571C15.3038 4.41805 15.5148 4.27716 15.747 4.18112C15.9791 4.08507 16.2279 4.03575 16.4792 4.03598Z" fill="#0891B2"/>
<path d="M22.6583 44.3304C33.8 44.3304 33.1044 39.4986 33.1044 39.4986L33.092 34.493H22.4594V32.9901H37.3148C37.3148 32.9901 44.4444 33.7987 44.4444 22.5564C44.4444 11.3142 38.2215 11.713 38.2215 11.713H34.5077V16.9296C34.5077 16.9296 34.708 23.1525 28.3842 23.1525H17.8388C17.8388 23.1525 11.914 23.0568 11.914 28.8788V38.5049C11.914 38.5049 11.0144 44.3304 22.6581 44.3304H22.6583ZM28.521 40.9644C28.2697 40.9646 28.0209 40.9153 27.7887 40.8192C27.5566 40.7232 27.3456 40.5823 27.1679 40.4047C26.9903 40.227 26.8494 40.016 26.7534 39.7839C26.6573 39.5517 26.608 39.3029 26.6082 39.0516C26.608 38.8004 26.6573 38.5515 26.7533 38.3193C26.8493 38.0871 26.9902 37.8762 27.1679 37.6985C27.3456 37.5208 27.5565 37.3799 27.7887 37.2839C28.0209 37.1878 28.2697 37.1385 28.521 37.1387C28.7722 37.1385 29.0211 37.1878 29.2532 37.2838C29.4854 37.3799 29.6963 37.5208 29.874 37.6984C30.0517 37.8761 30.1925 38.087 30.2886 38.3192C30.3846 38.5514 30.434 38.8002 30.4337 39.0515C30.434 39.3027 30.3846 39.5515 30.2886 39.7837C30.1925 40.0159 30.0517 40.2268 29.874 40.4045C29.6963 40.5821 29.4854 40.723 29.2532 40.8191C29.0211 40.9151 28.7722 40.9644 28.521 40.9642V40.9644Z" fill="#FACC15"/>
</svg>
