<svg width="39" height="45" viewBox="0 0 39 45" fill="none" xmlns="http://www.w3.org/2000/svg">
<path d="M38.8495 0.555553L35.3239 40.051L19.4763 44.4444L3.67236 40.0572L0.150513 0.555553H38.8495Z" fill="#264DE4"/>
<path d="M32.3056 37.536L35.3185 3.78539H19.5V41.0863L32.3056 37.536Z" fill="#2965F1"/>
<path d="M8.22427 18.436L8.65849 23.2806H19.5V18.436H8.22427Z" fill="#EBEBEB"/>
<path d="M19.5 8.6301H19.4833H7.35179L7.79219 13.4749H19.5V8.6301Z" fill="#EBEBEB"/>
<path d="M19.5 36.0586V31.0181L19.4788 31.0237L14.0832 29.5668L13.7383 25.7029H11.1164H8.87494L9.55368 33.3098L19.4777 36.0648L19.5 36.0586Z" fill="#EBEBEB"/>
<path d="M25.449 23.2806L24.8866 29.5638L19.4832 31.0222V36.0625L29.4152 33.3099L29.488 32.4914L30.6265 19.7369L30.7447 18.4359L31.6193 8.6301H19.4832V13.4749H26.3099L25.8691 18.4359H19.4832V23.2806H25.449Z" fill="#1E2235"/>
</svg>
