<svg width="45" height="27" viewBox="0 0 45 27" fill="none" xmlns="http://www.w3.org/2000/svg">
<path d="M12.9239 9.90913C12.9239 10.4492 12.9823 10.8871 13.0844 11.2083C13.2012 11.5294 13.3472 11.8797 13.5515 12.2592C13.6245 12.376 13.6537 12.4928 13.6537 12.595C13.6537 12.7409 13.5661 12.8869 13.3764 13.0329L12.4568 13.646C12.3254 13.7335 12.194 13.7773 12.0772 13.7773C11.9313 13.7773 11.7853 13.7043 11.6393 13.573C11.435 13.354 11.2598 13.1205 11.1138 12.8869C10.9679 12.6388 10.8219 12.3614 10.6613 12.0257C9.52277 13.3686 8.09226 14.0401 6.36982 14.0401C5.14367 14.0401 4.16567 13.6898 3.45042 12.9891C2.73516 12.2884 2.37024 11.3542 2.37024 10.1865C2.37024 8.94573 2.80815 7.93853 3.69857 7.17949C4.58898 6.42045 5.77134 6.04092 7.27483 6.04092C7.77113 6.04092 8.28202 6.08471 8.82211 6.1577C9.3622 6.23069 9.91689 6.34746 10.5008 6.47883V5.41325C10.5008 4.30388 10.2672 3.53024 9.81471 3.07773C9.3476 2.62523 8.55936 2.40627 7.4354 2.40627C6.9245 2.40627 6.39901 2.46466 5.85892 2.59603C5.31883 2.72741 4.79334 2.88797 4.28245 3.09233C4.04889 3.19451 3.87373 3.2529 3.77155 3.28209C3.66937 3.31129 3.59639 3.32588 3.538 3.32588C3.33364 3.32588 3.23146 3.17991 3.23146 2.87338V2.15812C3.23146 1.92457 3.26066 1.74941 3.33364 1.64723C3.40663 1.54505 3.538 1.44287 3.74236 1.34069C4.25325 1.07794 4.86633 0.85899 5.58158 0.683826C6.29683 0.494065 7.05587 0.406483 7.85871 0.406483C9.59575 0.406483 10.8657 0.800602 11.6831 1.58884C12.486 2.37708 12.8947 3.57403 12.8947 5.1797V9.90913H12.9239ZM6.99749 12.1279C7.47919 12.1279 7.97549 12.0403 8.50098 11.8651C9.02647 11.69 9.49357 11.3688 9.88769 10.9309C10.1212 10.6536 10.2964 10.347 10.384 9.99671C10.4716 9.64638 10.53 9.22307 10.53 8.72677V8.1137C10.1066 8.01152 9.65414 7.92394 9.18704 7.86555C8.71993 7.80716 8.26743 7.77797 7.81492 7.77797C6.83692 7.77797 6.12167 7.96773 5.63997 8.36185C5.15827 8.75597 4.92471 9.31065 4.92471 10.0405C4.92471 10.7266 5.09988 11.2375 5.4648 11.5878C5.81513 11.9527 6.32603 12.1279 6.99749 12.1279ZM18.7189 13.7043C18.4561 13.7043 18.281 13.6606 18.1642 13.5584C18.0474 13.4708 17.9452 13.2664 17.8577 12.9891L14.4274 1.70562C14.3398 1.41368 14.296 1.22391 14.296 1.12174C14.296 0.888184 14.4128 0.756811 14.6463 0.756811H16.0768C16.3542 0.756811 16.5439 0.800602 16.6461 0.902781C16.7629 0.990363 16.8505 1.19472 16.938 1.47206L19.3903 11.1353L21.6675 1.47206C21.7405 1.18012 21.828 0.990363 21.9448 0.902781C22.0616 0.815199 22.2659 0.756811 22.5287 0.756811H23.6964C23.9738 0.756811 24.1636 0.800602 24.2803 0.902781C24.3971 0.990363 24.4993 1.19472 24.5577 1.47206L26.864 11.2521L29.3893 1.47206C29.4769 1.18012 29.579 0.990363 29.6812 0.902781C29.798 0.815199 29.9878 0.756811 30.2505 0.756811H31.608C31.8416 0.756811 31.9729 0.873587 31.9729 1.12174C31.9729 1.19472 31.9583 1.26771 31.9438 1.35529C31.9292 1.44287 31.9 1.55965 31.8416 1.72021L28.3237 13.0037C28.2361 13.2956 28.1339 13.4854 28.0172 13.573C27.9004 13.6606 27.7106 13.7189 27.4625 13.7189H26.2071C25.9298 13.7189 25.74 13.6752 25.6233 13.573C25.5065 13.4708 25.4043 13.281 25.3459 12.9891L23.0834 3.57403L20.8354 12.9745C20.7625 13.2664 20.6749 13.4562 20.5581 13.5584C20.4413 13.6606 20.237 13.7043 19.9742 13.7043H18.7189ZM37.476 14.0985C36.717 14.0985 35.9579 14.0109 35.2281 13.8357C34.4982 13.6606 33.9289 13.4708 33.5494 13.2518C33.3159 13.1205 33.1553 12.9745 33.0969 12.8431C33.0385 12.7118 33.0093 12.5658 33.0093 12.4344V11.69C33.0093 11.3834 33.1261 11.2375 33.3451 11.2375C33.4326 11.2375 33.5202 11.2521 33.6078 11.2812C33.6954 11.3104 33.8268 11.3688 33.9727 11.4272C34.469 11.6462 35.0091 11.8213 35.5784 11.9381C36.1623 12.0549 36.7316 12.1133 37.3154 12.1133C38.2351 12.1133 38.9503 11.9527 39.4466 11.6316C39.9429 11.3104 40.2057 10.8433 40.2057 10.2449C40.2057 9.83614 40.0743 9.50041 39.8115 9.22307C39.5488 8.94573 39.0525 8.69758 38.3372 8.46403L36.2207 7.80716C35.1551 7.47143 34.3669 6.97513 33.8852 6.31827C33.4035 5.676 33.1553 4.96075 33.1553 4.2017C33.1553 3.58863 33.2867 3.04854 33.5494 2.58144C33.8122 2.11433 34.1625 1.70562 34.6004 1.38448C35.0383 1.04875 35.5346 0.800602 36.1185 0.625438C36.7024 0.450274 37.3154 0.377289 37.9577 0.377289C38.2788 0.377289 38.6146 0.391886 38.9357 0.435677C39.2714 0.479468 39.578 0.537856 39.8845 0.596244C40.1765 0.669229 40.4538 0.742214 40.7165 0.829796C40.9793 0.917378 41.1837 1.00496 41.3296 1.09254C41.534 1.20932 41.6799 1.32609 41.7675 1.45747C41.8551 1.57424 41.8989 1.73481 41.8989 1.93917V2.62523C41.8989 2.93176 41.7821 3.09233 41.5632 3.09233C41.4464 3.09233 41.2566 3.03394 41.0085 2.91717C40.1765 2.53764 39.2422 2.34788 38.2059 2.34788C37.3738 2.34788 36.717 2.47926 36.2645 2.7566C35.812 3.03394 35.5784 3.45726 35.5784 4.05573C35.5784 4.46445 35.7244 4.81478 36.0163 5.09212C36.3083 5.36946 36.8483 5.64681 37.622 5.89495L39.6948 6.55182C40.7457 6.88755 41.5048 7.35465 41.9573 7.95313C42.4098 8.55161 42.6287 9.23767 42.6287 9.99671C42.6287 10.6244 42.4974 11.1937 42.2492 11.69C41.9865 12.1863 41.6362 12.6242 41.1837 12.9745C40.7311 13.3394 40.1911 13.6022 39.5634 13.7919C38.9065 13.9963 38.2205 14.0985 37.476 14.0985Z" fill="white"/>
<path fill-rule="evenodd" clip-rule="evenodd" d="M40.2348 21.1926C35.4324 24.7397 28.455 26.6227 22.4557 26.6227C14.0478 26.6227 6.47199 23.5135 0.749976 18.3462C0.29747 17.9374 0.706185 17.3828 1.24627 17.7039C7.43539 21.2948 15.0696 23.4697 22.9666 23.4697C28.2945 23.4697 34.1479 22.3603 39.5342 20.0832C40.337 19.7183 41.023 20.6087 40.2348 21.1926Z" fill="#FF9900"/>
<path fill-rule="evenodd" clip-rule="evenodd" d="M42.2346 18.9154C41.6215 18.1272 38.1767 18.5359 36.6148 18.7257C36.1477 18.7841 36.0747 18.3754 36.498 18.0688C39.2423 16.142 43.7527 16.6967 44.2782 17.339C44.8037 17.9958 44.1322 22.5063 41.5632 24.6667C41.169 25.0024 40.7895 24.8272 40.9647 24.3893C41.5486 22.9442 42.8477 19.6891 42.2346 18.9154Z" fill="#FF9900"/>
</svg>
