<svg width="31" height="45" viewBox="0 0 31 45" fill="none" xmlns="http://www.w3.org/2000/svg">
<path d="M8.18519 44.4445C12.223 44.4445 15.5 41.1674 15.5 37.1296V29.8148H8.18519C4.14741 29.8148 0.870377 33.0919 0.870377 37.1296C0.870377 41.1674 4.14741 44.4445 8.18519 44.4445Z" fill="#0ACF83"/>
<path d="M0.870377 22.5C0.870377 18.4622 4.14741 15.1852 8.18519 15.1852H15.5V29.8148H8.18519C4.14741 29.8148 0.870377 26.5377 0.870377 22.5Z" fill="#A259FF"/>
<path d="M0.870377 7.87037C0.870377 3.83259 4.14741 0.555553 8.18519 0.555553H15.5V15.1852H8.18519C4.14741 15.1852 0.870377 11.9081 0.870377 7.87037Z" fill="#F24E1E"/>
<path d="M15.5 0.555553H22.8148C26.8526 0.555553 30.1297 3.83259 30.1297 7.87037C30.1297 11.9081 26.8526 15.1852 22.8148 15.1852H15.5V0.555553Z" fill="#FF7262"/>
<path d="M30.1297 22.5C30.1297 26.5377 26.8526 29.8148 22.8148 29.8148C18.777 29.8148 15.5 26.5377 15.5 22.5C15.5 18.4622 18.777 15.1852 22.8148 15.1852C26.8526 15.1852 30.1297 18.4622 30.1297 22.5Z" fill="#1ABCFE"/>
</svg>
