<svg width="41" height="45" viewBox="0 0 41 45" fill="none" xmlns="http://www.w3.org/2000/svg">
<path d="M27.8199 43.2099C31.0624 31.583 29.8956 25.7221 24.2111 24.5961C25.0794 28.544 26.0562 32.6005 21.9047 35.3411C19.734 36.7791 18.011 36.2229 14.158 33.2653C12.3808 36.9148 12.9777 40.5507 13.8053 44.4444C8.28356 43.4812 3.92858 41.1884 1.90712 35.8566C-0.182184 30.9997 0.970998 25.3694 4.76973 21.7063C6.09928 20.3496 7.53738 19.1151 9.07044 18.0026C15.2841 13.3356 16.4915 8.80422 13.2083 1.79014C13.0591 1.38313 12.937 0.976127 12.8556 0.555553C19.7612 1.6002 26.3004 4.38142 31.8628 8.61429C43.978 18.5181 42.5128 36.3314 29.1359 42.8707C28.6746 42.8978 28.2404 43.0064 27.8199 43.2099V43.2099Z" fill="#EE4854"/>
</svg>
